<svg width="26" height="37" viewBox="0 0 26 37" fill="none" xmlns="http://www.w3.org/2000/svg">
<path d="M2.96859 27.5975L9.73482 30.2713L7.14172 36.8332L0.37549 34.1594L2.96859 27.5975ZM1.14142 7.97454C3.02787 3.73229 5.74232 1.26981 9.28477 0.587101C11.5255 0.142541 13.9477 0.434694 16.5513 1.46356C19.9722 2.81544 22.4874 4.75442 24.0968 7.2805C25.7213 9.81256 25.8995 12.6831 24.6313 15.8921C23.8537 17.86 22.7067 19.323 21.1905 20.2814C20.2922 20.8715 18.7745 21.4793 16.6372 22.1048L14.5317 22.7165C13.3845 23.0507 12.4877 23.6151 11.8412 24.4097C11.4323 24.9131 10.9809 25.7673 10.4873 26.9723L4.35678 24.5497C5.45853 22.0274 6.3976 20.3596 7.17399 19.5464C7.95637 18.718 9.41619 17.9911 11.5534 17.3656L13.7224 16.7264C14.4288 16.5331 15.0443 16.26 15.5687 15.9072C16.5032 15.314 17.1678 14.5178 17.5626 13.5188C18.0172 12.3684 18.0894 11.1893 17.7791 9.98165C17.4899 8.76482 16.4522 7.80348 14.6661 7.09763C12.9102 6.40374 11.4311 6.49302 10.2288 7.36546C9.04162 8.24388 8.19979 9.31128 7.7033 10.5676L1.14142 7.97454Z" fill="#FF671F"/>
</svg>
